<svg xmlns="http://www.w3.org/2000/svg" xmlns:xlink="http://www.w3.org/1999/xlink" width="800" zoomAndPan="magnify" viewBox="0 0 600 30.000001" height="40" preserveAspectRatio="xMidYMid meet" version="1.0"><defs><clipPath id="e0e2342b3b"><path d="M 9.675781 0 L 585 0 L 585 3 L 9.675781 3 Z M 9.675781 0 " clip-rule="nonzero"/></clipPath></defs><g clip-path="url(#e0e2342b3b)"><path fill="#2e3440" d="M 10.765625 0 L 21.652344 0 C 21.796875 0 21.9375 0.0273438 22.070312 0.0820312 C 22.203125 0.136719 22.320312 0.214844 22.421875 0.320312 C 22.523438 0.421875 22.605469 0.539062 22.660156 0.671875 C 22.714844 0.804688 22.742188 0.945312 22.742188 1.089844 C 22.742188 1.234375 22.714844 1.371094 22.660156 1.503906 C 22.605469 1.640625 22.523438 1.757812 22.421875 1.859375 C 22.320312 1.960938 22.203125 2.039062 22.070312 2.09375 C 21.9375 2.148438 21.796875 2.175781 21.652344 2.175781 L 10.765625 2.175781 C 10.621094 2.175781 10.484375 2.148438 10.347656 2.09375 C 10.214844 2.039062 10.097656 1.960938 9.996094 1.859375 C 9.894531 1.757812 9.816406 1.640625 9.761719 1.503906 C 9.703125 1.371094 9.675781 1.234375 9.675781 1.089844 C 9.675781 0.945312 9.703125 0.804688 9.761719 0.671875 C 9.816406 0.539062 9.894531 0.421875 9.996094 0.320312 C 10.097656 0.214844 10.214844 0.136719 10.347656 0.0820312 C 10.484375 0.0273438 10.621094 0 10.765625 0 Z M 26.007812 0 L 36.894531 0 C 37.039062 0 37.179688 0.0273438 37.3125 0.0820312 C 37.445312 0.136719 37.5625 0.214844 37.664062 0.320312 C 37.765625 0.421875 37.847656 0.539062 37.902344 0.671875 C 37.957031 0.804688 37.984375 0.945312 37.984375 1.089844 C 37.984375 1.234375 37.957031 1.371094 37.902344 1.503906 C 37.847656 1.640625 37.765625 1.757812 37.664062 1.859375 C 37.5625 1.960938 37.445312 2.039062 37.3125 2.09375 C 37.179688 2.148438 37.039062 2.175781 36.894531 2.175781 L 26.007812 2.175781 C 25.863281 2.175781 25.726562 2.148438 25.589844 2.09375 C 25.457031 2.039062 25.339844 1.960938 25.238281 1.859375 C 25.136719 1.757812 25.058594 1.640625 25.003906 1.503906 C 24.945312 1.371094 24.917969 1.234375 24.917969 1.089844 C 24.917969 0.945312 24.945312 0.804688 25.003906 0.671875 C 25.058594 0.539062 25.136719 0.421875 25.238281 0.320312 C 25.339844 0.214844 25.457031 0.136719 25.589844 0.0820312 C 25.726562 0.0273438 25.863281 0 26.007812 0 Z M 41.25 0 L 52.136719 0 C 52.28125 0 52.421875 0.0273438 52.554688 0.0820312 C 52.6875 0.136719 52.804688 0.214844 52.90625 0.320312 C 53.007812 0.421875 53.085938 0.539062 53.144531 0.671875 C 53.199219 0.804688 53.226562 0.945312 53.226562 1.089844 C 53.226562 1.234375 53.199219 1.371094 53.144531 1.503906 C 53.085938 1.640625 53.007812 1.757812 52.90625 1.859375 C 52.804688 1.960938 52.6875 2.039062 52.554688 2.09375 C 52.421875 2.148438 52.28125 2.175781 52.136719 2.175781 L 41.25 2.175781 C 41.105469 2.175781 40.964844 2.148438 40.832031 2.09375 C 40.699219 2.039062 40.582031 1.960938 40.480469 1.859375 C 40.378906 1.757812 40.300781 1.640625 40.246094 1.503906 C 40.1875 1.371094 40.160156 1.234375 40.160156 1.089844 C 40.160156 0.945312 40.1875 0.804688 40.246094 0.671875 C 40.300781 0.539062 40.378906 0.421875 40.480469 0.320312 C 40.582031 0.214844 40.699219 0.136719 40.832031 0.0820312 C 40.964844 0.0273438 41.105469 0 41.25 0 Z M 56.492188 0 L 67.378906 0 C 67.523438 0 67.664062 0.0273438 67.796875 0.0820312 C 67.929688 0.136719 68.046875 0.214844 68.148438 0.320312 C 68.25 0.421875 68.328125 0.539062 68.386719 0.671875 C 68.441406 0.804688 68.46875 0.945312 68.46875 1.089844 C 68.46875 1.234375 68.441406 1.371094 68.386719 1.503906 C 68.328125 1.640625 68.25 1.757812 68.148438 1.859375 C 68.046875 1.960938 67.929688 2.039062 67.796875 2.09375 C 67.664062 2.148438 67.523438 2.175781 67.378906 2.175781 L 56.492188 2.175781 C 56.347656 2.175781 56.207031 2.148438 56.074219 2.09375 C 55.941406 2.039062 55.824219 1.960938 55.722656 1.859375 C 55.621094 1.757812 55.542969 1.640625 55.484375 1.503906 C 55.429688 1.371094 55.402344 1.234375 55.402344 1.089844 C 55.402344 0.945312 55.429688 0.804688 55.484375 0.671875 C 55.542969 0.539062 55.621094 0.421875 55.722656 0.320312 C 55.824219 0.214844 55.941406 0.136719 56.074219 0.0820312 C 56.207031 0.0273438 56.347656 0 56.492188 0 Z M 71.734375 0 L 82.621094 0 C 82.765625 0 82.902344 0.0273438 83.039062 0.0820312 C 83.171875 0.136719 83.289062 0.214844 83.390625 0.320312 C 83.492188 0.421875 83.570312 0.539062 83.625 0.671875 C 83.683594 0.804688 83.710938 0.945312 83.710938 1.089844 C 83.710938 1.234375 83.683594 1.371094 83.625 1.503906 C 83.570312 1.640625 83.492188 1.757812 83.390625 1.859375 C 83.289062 1.960938 83.171875 2.039062 83.039062 2.09375 C 82.902344 2.148438 82.765625 2.175781 82.621094 2.175781 L 71.734375 2.175781 C 71.589844 2.175781 71.449219 2.148438 71.316406 2.09375 C 71.183594 2.039062 71.066406 1.960938 70.964844 1.859375 C 70.863281 1.757812 70.785156 1.640625 70.726562 1.503906 C 70.671875 1.371094 70.644531 1.234375 70.644531 1.089844 C 70.644531 0.945312 70.671875 0.804688 70.726562 0.671875 C 70.785156 0.539062 70.863281 0.421875 70.964844 0.320312 C 71.066406 0.214844 71.183594 0.136719 71.316406 0.0820312 C 71.449219 0.0273438 71.589844 0 71.734375 0 Z M 86.976562 0 L 97.863281 0 C 98.007812 0 98.144531 0.0273438 98.28125 0.0820312 C 98.414062 0.136719 98.53125 0.214844 98.632812 0.320312 C 98.734375 0.421875 98.8125 0.539062 98.867188 0.671875 C 98.925781 0.804688 98.953125 0.945312 98.953125 1.089844 C 98.953125 1.234375 98.925781 1.371094 98.867188 1.503906 C 98.8125 1.640625 98.734375 1.757812 98.632812 1.859375 C 98.53125 1.960938 98.414062 2.039062 98.28125 2.09375 C 98.144531 2.148438 98.007812 2.175781 97.863281 2.175781 L 86.976562 2.175781 C 86.832031 2.175781 86.691406 2.148438 86.558594 2.09375 C 86.425781 2.039062 86.308594 1.960938 86.207031 1.859375 C 86.105469 1.757812 86.023438 1.640625 85.96875 1.503906 C 85.914062 1.371094 85.886719 1.234375 85.886719 1.089844 C 85.886719 0.945312 85.914062 0.804688 85.96875 0.671875 C 86.023438 0.539062 86.105469 0.421875 86.207031 0.320312 C 86.308594 0.214844 86.425781 0.136719 86.558594 0.0820312 C 86.691406 0.0273438 86.832031 0 86.976562 0 Z M 102.21875 0 L 113.105469 0 C 113.25 0 113.386719 0.0273438 113.519531 0.0820312 C 113.65625 0.136719 113.773438 0.214844 113.875 0.320312 C 113.976562 0.421875 114.054688 0.539062 114.109375 0.671875 C 114.164062 0.804688 114.195312 0.945312 114.195312 1.089844 C 114.195312 1.234375 114.164062 1.371094 114.109375 1.503906 C 114.054688 1.640625 113.976562 1.757812 113.875 1.859375 C 113.773438 1.960938 113.65625 2.039062 113.519531 2.09375 C 113.386719 2.148438 113.25 2.175781 113.105469 2.175781 L 102.21875 2.175781 C 102.074219 2.175781 101.933594 2.148438 101.800781 2.09375 C 101.667969 2.039062 101.550781 1.960938 101.449219 1.859375 C 101.347656 1.757812 101.265625 1.640625 101.210938 1.503906 C 101.15625 1.371094 101.128906 1.234375 101.128906 1.089844 C 101.128906 0.945312 101.15625 0.804688 101.210938 0.671875 C 101.265625 0.539062 101.347656 0.421875 101.449219 0.320312 C 101.550781 0.214844 101.667969 0.136719 101.800781 0.0820312 C 101.933594 0.0273438 102.074219 0 102.21875 0 Z M 117.460938 0 L 128.347656 0 C 128.492188 0 128.628906 0.0273438 128.761719 0.0820312 C 128.898438 0.136719 129.015625 0.214844 129.117188 0.320312 C 129.21875 0.421875 129.296875 0.539062 129.351562 0.671875 C 129.40625 0.804688 129.433594 0.945312 129.433594 1.089844 C 129.433594 1.234375 129.40625 1.371094 129.351562 1.503906 C 129.296875 1.640625 129.21875 1.757812 129.117188 1.859375 C 129.015625 1.960938 128.898438 2.039062 128.761719 2.09375 C 128.628906 2.148438 128.492188 2.175781 128.347656 2.175781 L 117.460938 2.175781 C 117.316406 2.175781 117.175781 2.148438 117.042969 2.09375 C 116.910156 2.039062 116.792969 1.960938 116.691406 1.859375 C 116.585938 1.757812 116.507812 1.640625 116.453125 1.503906 C 116.398438 1.371094 116.371094 1.234375 116.371094 1.089844 C 116.371094 0.945312 116.398438 0.804688 116.453125 0.671875 C 116.507812 0.539062 116.585938 0.421875 116.691406 0.320312 C 116.792969 0.214844 116.910156 0.136719 117.042969 0.0820312 C 117.175781 0.0273438 117.316406 0 117.460938 0 Z M 132.703125 0 L 143.589844 0 C 143.734375 0 143.871094 0.0273438 144.003906 0.0820312 C 144.140625 0.136719 144.257812 0.214844 144.359375 0.320312 C 144.460938 0.421875 144.539062 0.539062 144.59375 0.671875 C 144.648438 0.804688 144.675781 0.945312 144.675781 1.089844 C 144.675781 1.234375 144.648438 1.371094 144.59375 1.503906 C 144.539062 1.640625 144.460938 1.757812 144.359375 1.859375 C 144.257812 1.960938 144.140625 2.039062 144.003906 2.09375 C 143.871094 2.148438 143.734375 2.175781 143.589844 2.175781 L 132.703125 2.175781 C 132.558594 2.175781 132.417969 2.148438 132.285156 2.09375 C 132.152344 2.039062 132.035156 1.960938 131.933594 1.859375 C 131.828125 1.757812 131.75 1.640625 131.695312 1.503906 C 131.640625 1.371094 131.613281 1.234375 131.613281 1.089844 C 131.613281 0.945312 131.640625 0.804688 131.695312 0.671875 C 131.75 0.539062 131.828125 0.421875 131.933594 0.320312 C 132.035156 0.214844 132.152344 0.136719 132.285156 0.0820312 C 132.417969 0.0273438 132.558594 0 132.703125 0 Z M 147.945312 0 L 158.832031 0 C 158.976562 0 159.113281 0.0273438 159.246094 0.0820312 C 159.378906 0.136719 159.5 0.214844 159.601562 0.320312 C 159.703125 0.421875 159.78125 0.539062 159.835938 0.671875 C 159.890625 0.804688 159.917969 0.945312 159.917969 1.089844 C 159.917969 1.234375 159.890625 1.371094 159.835938 1.503906 C 159.78125 1.640625 159.703125 1.757812 159.601562 1.859375 C 159.5 1.960938 159.378906 2.039062 159.246094 2.09375 C 159.113281 2.148438 158.976562 2.175781 158.832031 2.175781 L 147.945312 2.175781 C 147.800781 2.175781 147.660156 2.148438 147.527344 2.09375 C 147.394531 2.039062 147.277344 1.960938 147.171875 1.859375 C 147.070312 1.757812 146.992188 1.640625 146.9375 1.503906 C 146.882812 1.371094 146.855469 1.234375 146.855469 1.089844 C 146.855469 0.945312 146.882812 0.804688 146.9375 0.671875 C 146.992188 0.539062 147.070312 0.421875 147.171875 0.320312 C 147.277344 0.214844 147.394531 0.136719 147.527344 0.0820312 C 147.660156 0.0273438 147.800781 0 147.945312 0 Z M 163.183594 0 L 174.074219 0 C 174.21875 0 174.355469 0.0273438 174.488281 0.0820312 C 174.621094 0.136719 174.742188 0.214844 174.84375 0.320312 C 174.945312 0.421875 175.023438 0.539062 175.078125 0.671875 C 175.132812 0.804688 175.160156 0.945312 175.160156 1.089844 C 175.160156 1.234375 175.132812 1.371094 175.078125 1.503906 C 175.023438 1.640625 174.945312 1.757812 174.84375 1.859375 C 174.742188 1.960938 174.621094 2.039062 174.488281 2.09375 C 174.355469 2.148438 174.21875 2.175781 174.074219 2.175781 L 163.183594 2.175781 C 163.042969 2.175781 162.902344 2.148438 162.769531 2.09375 C 162.636719 2.039062 162.519531 1.960938 162.414062 1.859375 C 162.3125 1.757812 162.234375 1.640625 162.179688 1.503906 C 162.125 1.371094 162.097656 1.234375 162.097656 1.089844 C 162.097656 0.945312 162.125 0.804688 162.179688 0.671875 C 162.234375 0.539062 162.3125 0.421875 162.414062 0.320312 C 162.519531 0.214844 162.636719 0.136719 162.769531 0.0820312 C 162.902344 0.0273438 163.042969 0 163.183594 0 Z M 178.425781 0 L 189.316406 0 C 189.457031 0 189.597656 0.0273438 189.730469 0.0820312 C 189.863281 0.136719 189.980469 0.214844 190.085938 0.320312 C 190.1875 0.421875 190.265625 0.539062 190.320312 0.671875 C 190.375 0.804688 190.402344 0.945312 190.402344 1.089844 C 190.402344 1.234375 190.375 1.371094 190.320312 1.503906 C 190.265625 1.640625 190.1875 1.757812 190.085938 1.859375 C 189.980469 1.960938 189.863281 2.039062 189.730469 2.09375 C 189.597656 2.148438 189.457031 2.175781 189.316406 2.175781 L 178.425781 2.175781 C 178.28125 2.175781 178.144531 2.148438 178.011719 2.09375 C 177.878906 2.039062 177.757812 1.960938 177.65625 1.859375 C 177.554688 1.757812 177.476562 1.640625 177.421875 1.503906 C 177.367188 1.371094 177.339844 1.234375 177.339844 1.089844 C 177.339844 0.945312 177.367188 0.804688 177.421875 0.671875 C 177.476562 0.539062 177.554688 0.421875 177.65625 0.320312 C 177.757812 0.214844 177.878906 0.136719 178.011719 0.0820312 C 178.144531 0.0273438 178.28125 0 178.425781 0 Z M 193.667969 0 L 204.554688 0 C 204.699219 0 204.839844 0.0273438 204.972656 0.0820312 C 205.105469 0.136719 205.222656 0.214844 205.328125 0.320312 C 205.429688 0.421875 205.507812 0.539062 205.5625 0.671875 C 205.617188 0.804688 205.644531 0.945312 205.644531 1.089844 C 205.644531 1.234375 205.617188 1.371094 205.5625 1.503906 C 205.507812 1.640625 205.429688 1.757812 205.328125 1.859375 C 205.222656 1.960938 205.105469 2.039062 204.972656 2.09375 C 204.839844 2.148438 204.699219 2.175781 204.554688 2.175781 L 193.667969 2.175781 C 193.523438 2.175781 193.386719 2.148438 193.253906 2.09375 C 193.121094 2.039062 193 1.960938 192.898438 1.859375 C 192.796875 1.757812 192.71875 1.640625 192.664062 1.503906 C 192.609375 1.371094 192.582031 1.234375 192.582031 1.089844 C 192.582031 0.945312 192.609375 0.804688 192.664062 0.671875 C 192.71875 0.539062 192.796875 0.421875 192.898438 0.320312 C 193 0.214844 193.121094 0.136719 193.253906 0.0820312 C 193.386719 0.0273438 193.523438 0 193.667969 0 Z M 208.910156 0 L 219.796875 0 C 219.941406 0 220.082031 0.0273438 220.214844 0.0820312 C 220.347656 0.136719 220.464844 0.214844 220.566406 0.320312 C 220.671875 0.421875 220.75 0.539062 220.804688 0.671875 C 220.859375 0.804688 220.886719 0.945312 220.886719 1.089844 C 220.886719 1.234375 220.859375 1.371094 220.804688 1.503906 C 220.75 1.640625 220.671875 1.757812 220.566406 1.859375 C 220.464844 1.960938 220.347656 2.039062 220.214844 2.09375 C 220.082031 2.148438 219.941406 2.175781 219.796875 2.175781 L 208.910156 2.175781 C 208.765625 2.175781 208.628906 2.148438 208.496094 2.09375 C 208.359375 2.039062 208.242188 1.960938 208.140625 1.859375 C 208.039062 1.757812 207.960938 1.640625 207.90625 1.503906 C 207.851562 1.371094 207.824219 1.234375 207.824219 1.089844 C 207.824219 0.945312 207.851562 0.804688 207.90625 0.671875 C 207.960938 0.539062 208.039062 0.421875 208.140625 0.320312 C 208.242188 0.214844 208.359375 0.136719 208.496094 0.0820312 C 208.628906 0.0273438 208.765625 0 208.910156 0 Z M 224.152344 0 L 235.039062 0 C 235.183594 0 235.324219 0.0273438 235.457031 0.0820312 C 235.589844 0.136719 235.707031 0.214844 235.808594 0.320312 C 235.914062 0.421875 235.992188 0.539062 236.046875 0.671875 C 236.101562 0.804688 236.128906 0.945312 236.128906 1.089844 C 236.128906 1.234375 236.101562 1.371094 236.046875 1.503906 C 235.992188 1.640625 235.914062 1.757812 235.808594 1.859375 C 235.707031 1.960938 235.589844 2.039062 235.457031 2.09375 C 235.324219 2.148438 235.183594 2.175781 235.039062 2.175781 L 224.152344 2.175781 C 224.007812 2.175781 223.871094 2.148438 223.738281 2.09375 C 223.601562 2.039062 223.484375 1.960938 223.382812 1.859375 C 223.28125 1.757812 223.203125 1.640625 223.148438 1.503906 C 223.09375 1.371094 223.066406 1.234375 223.066406 1.089844 C 223.066406 0.945312 223.09375 0.804688 223.148438 0.671875 C 223.203125 0.539062 223.28125 0.421875 223.382812 0.320312 C 223.484375 0.214844 223.601562 0.136719 223.738281 0.0820312 C 223.871094 0.0273438 224.007812 0 224.152344 0 Z M 239.394531 0 L 250.28125 0 C 250.425781 0 250.566406 0.0273438 250.699219 0.0820312 C 250.832031 0.136719 250.949219 0.214844 251.050781 0.320312 C 251.152344 0.421875 251.234375 0.539062 251.289062 0.671875 C 251.34375 0.804688 251.371094 0.945312 251.371094 1.089844 C 251.371094 1.234375 251.34375 1.371094 251.289062 1.503906 C 251.234375 1.640625 251.152344 1.757812 251.050781 1.859375 C 250.949219 1.960938 250.832031 2.039062 250.699219 2.09375 C 250.566406 2.148438 250.425781 2.175781 250.28125 2.175781 L 239.394531 2.175781 C 239.25 2.175781 239.113281 2.148438 238.976562 2.09375 C 238.84375 2.039062 238.726562 1.960938 238.625 1.859375 C 238.523438 1.757812 238.445312 1.640625 238.390625 1.503906 C 238.335938 1.371094 238.304688 1.234375 238.304688 1.089844 C 238.304688 0.945312 238.335938 0.804688 238.390625 0.671875 C 238.445312 0.539062 238.523438 0.421875 238.625 0.320312 C 238.726562 0.214844 238.84375 0.136719 238.976562 0.0820312 C 239.113281 0.0273438 239.25 0 239.394531 0 Z M 254.636719 0 L 265.523438 0 C 265.667969 0 265.808594 0.0273438 265.941406 0.0820312 C 266.074219 0.136719 266.191406 0.214844 266.292969 0.320312 C 266.394531 0.421875 266.476562 0.539062 266.53125 0.671875 C 266.585938 0.804688 266.613281 0.945312 266.613281 1.089844 C 266.613281 1.234375 266.585938 1.371094 266.53125 1.503906 C 266.476562 1.640625 266.394531 1.757812 266.292969 1.859375 C 266.191406 1.960938 266.074219 2.039062 265.941406 2.09375 C 265.808594 2.148438 265.667969 2.175781 265.523438 2.175781 L 254.636719 2.175781 C 254.492188 2.175781 254.355469 2.148438 254.21875 2.09375 C 254.085938 2.039062 253.96875 1.960938 253.867188 1.859375 C 253.765625 1.757812 253.6875 1.640625 253.632812 1.503906 C 253.574219 1.371094 253.546875 1.234375 253.546875 1.089844 C 253.546875 0.945312 253.574219 0.804688 253.632812 0.671875 C 253.6875 0.539062 253.765625 0.421875 253.867188 0.320312 C 253.96875 0.214844 254.085938 0.136719 254.21875 0.0820312 C 254.355469 0.0273438 254.492188 0 254.636719 0 Z M 269.878906 0 L 280.765625 0 C 280.910156 0 281.050781 0.0273438 281.183594 0.0820312 C 281.316406 0.136719 281.433594 0.214844 281.535156 0.320312 C 281.636719 0.421875 281.714844 0.539062 281.773438 0.671875 C 281.828125 0.804688 281.855469 0.945312 281.855469 1.089844 C 281.855469 1.234375 281.828125 1.371094 281.773438 1.503906 C 281.714844 1.640625 281.636719 1.757812 281.535156 1.859375 C 281.433594 1.960938 281.316406 2.039062 281.183594 2.09375 C 281.050781 2.148438 280.910156 2.175781 280.765625 2.175781 L 269.878906 2.175781 C 269.734375 2.175781 269.597656 2.148438 269.460938 2.09375 C 269.328125 2.039062 269.210938 1.960938 269.109375 1.859375 C 269.007812 1.757812 268.929688 1.640625 268.875 1.503906 C 268.816406 1.371094 268.789062 1.234375 268.789062 1.089844 C 268.789062 0.945312 268.816406 0.804688 268.875 0.671875 C 268.929688 0.539062 269.007812 0.421875 269.109375 0.320312 C 269.210938 0.214844 269.328125 0.136719 269.460938 0.0820312 C 269.597656 0.0273438 269.734375 0 269.878906 0 Z M 285.121094 0 L 296.007812 0 C 296.152344 0 296.292969 0.0273438 296.425781 0.0820312 C 296.558594 0.136719 296.675781 0.214844 296.777344 0.320312 C 296.878906 0.421875 296.957031 0.539062 297.015625 0.671875 C 297.070312 0.804688 297.097656 0.945312 297.097656 1.089844 C 297.097656 1.234375 297.070312 1.371094 297.015625 1.503906 C 296.957031 1.640625 296.878906 1.757812 296.777344 1.859375 C 296.675781 1.960938 296.558594 2.039062 296.425781 2.09375 C 296.292969 2.148438 296.152344 2.175781 296.007812 2.175781 L 285.121094 2.175781 C 284.976562 2.175781 284.835938 2.148438 284.703125 2.09375 C 284.570312 2.039062 284.453125 1.960938 284.351562 1.859375 C 284.25 1.757812 284.171875 1.640625 284.113281 1.503906 C 284.058594 1.371094 284.03125 1.234375 284.03125 1.089844 C 284.03125 0.945312 284.058594 0.804688 284.113281 0.671875 C 284.171875 0.539062 284.25 0.421875 284.351562 0.320312 C 284.453125 0.214844 284.570312 0.136719 284.703125 0.0820312 C 284.835938 0.0273438 284.976562 0 285.121094 0 Z M 300.363281 0 L 311.25 0 C 311.394531 0 311.535156 0.0273438 311.667969 0.0820312 C 311.800781 0.136719 311.917969 0.214844 312.019531 0.320312 C 312.121094 0.421875 312.199219 0.539062 312.253906 0.671875 C 312.3125 0.804688 312.339844 0.945312 312.339844 1.089844 C 312.339844 1.234375 312.3125 1.371094 312.253906 1.503906 C 312.199219 1.640625 312.121094 1.757812 312.019531 1.859375 C 311.917969 1.960938 311.800781 2.039062 311.667969 2.09375 C 311.535156 2.148438 311.394531 2.175781 311.25 2.175781 L 300.363281 2.175781 C 300.21875 2.175781 300.078125 2.148438 299.945312 2.09375 C 299.8125 2.039062 299.695312 1.960938 299.59375 1.859375 C 299.492188 1.757812 299.414062 1.640625 299.355469 1.503906 C 299.300781 1.371094 299.273438 1.234375 299.273438 1.089844 C 299.273438 0.945312 299.300781 0.804688 299.355469 0.671875 C 299.414062 0.539062 299.492188 0.421875 299.59375 0.320312 C 299.695312 0.214844 299.8125 0.136719 299.945312 0.0820312 C 300.078125 0.0273438 300.21875 0 300.363281 0 Z M 315.605469 0 L 326.492188 0 C 326.636719 0 326.773438 0.0273438 326.910156 0.0820312 C 327.042969 0.136719 327.160156 0.214844 327.261719 0.320312 C 327.363281 0.421875 327.441406 0.539062 327.496094 0.671875 C 327.554688 0.804688 327.582031 0.945312 327.582031 1.089844 C 327.582031 1.234375 327.554688 1.371094 327.496094 1.503906 C 327.441406 1.640625 327.363281 1.757812 327.261719 1.859375 C 327.160156 1.960938 327.042969 2.039062 326.910156 2.09375 C 326.773438 2.148438 326.636719 2.175781 326.492188 2.175781 L 315.605469 2.175781 C 315.460938 2.175781 315.320312 2.148438 315.1875 2.09375 C 315.054688 2.039062 314.9375 1.960938 314.835938 1.859375 C 314.734375 1.757812 314.652344 1.640625 314.597656 1.503906 C 314.542969 1.371094 314.515625 1.234375 314.515625 1.089844 C 314.515625 0.945312 314.542969 0.804688 314.597656 0.671875 C 314.652344 0.539062 314.734375 0.421875 314.835938 0.320312 C 314.9375 0.214844 315.054688 0.136719 315.1875 0.0820312 C 315.320312 0.0273438 315.460938 0 315.605469 0 Z M 330.847656 0 L 341.734375 0 C 341.878906 0 342.015625 0.0273438 342.152344 0.0820312 C 342.285156 0.136719 342.402344 0.214844 342.503906 0.320312 C 342.605469 0.421875 342.683594 0.539062 342.738281 0.671875 C 342.792969 0.804688 342.824219 0.945312 342.824219 1.089844 C 342.824219 1.234375 342.792969 1.371094 342.738281 1.503906 C 342.683594 1.640625 342.605469 1.757812 342.503906 1.859375 C 342.402344 1.960938 342.285156 2.039062 342.152344 2.09375 C 342.015625 2.148438 341.878906 2.175781 341.734375 2.175781 L 330.847656 2.175781 C 330.703125 2.175781 330.5625 2.148438 330.429688 2.09375 C 330.296875 2.039062 330.179688 1.960938 330.078125 1.859375 C 329.976562 1.757812 329.894531 1.640625 329.839844 1.503906 C 329.785156 1.371094 329.757812 1.234375 329.757812 1.089844 C 329.757812 0.945312 329.785156 0.804688 329.839844 0.671875 C 329.894531 0.539062 329.976562 0.421875 330.078125 0.320312 C 330.179688 0.214844 330.296875 0.136719 330.429688 0.0820312 C 330.5625 0.0273438 330.703125 0 330.847656 0 Z M 346.089844 0 L 356.976562 0 C 357.121094 0 357.257812 0.0273438 357.390625 0.0820312 C 357.527344 0.136719 357.644531 0.214844 357.746094 0.320312 C 357.847656 0.421875 357.925781 0.539062 357.980469 0.671875 C 358.035156 0.804688 358.066406 0.945312 358.066406 1.089844 C 358.066406 1.234375 358.035156 1.371094 357.980469 1.503906 C 357.925781 1.640625 357.847656 1.757812 357.746094 1.859375 C 357.644531 1.960938 357.527344 2.039062 357.390625 2.09375 C 357.257812 2.148438 357.121094 2.175781 356.976562 2.175781 L 346.089844 2.175781 C 345.945312 2.175781 345.804688 2.148438 345.671875 2.09375 C 345.539062 2.039062 345.421875 1.960938 345.320312 1.859375 C 345.214844 1.757812 345.136719 1.640625 345.082031 1.503906 C 345.027344 1.371094 345 1.234375 345 1.089844 C 345 0.945312 345.027344 0.804688 345.082031 0.671875 C 345.136719 0.539062 345.214844 0.421875 345.320312 0.320312 C 345.421875 0.214844 345.539062 0.136719 345.671875 0.0820312 C 345.804688 0.0273438 345.945312 0 346.089844 0 Z M 361.332031 0 L 372.21875 0 C 372.363281 0 372.5 0.0273438 372.632812 0.0820312 C 372.769531 0.136719 372.886719 0.214844 372.988281 0.320312 C 373.089844 0.421875 373.167969 0.539062 373.222656 0.671875 C 373.277344 0.804688 373.304688 0.945312 373.304688 1.089844 C 373.304688 1.234375 373.277344 1.371094 373.222656 1.503906 C 373.167969 1.640625 373.089844 1.757812 372.988281 1.859375 C 372.886719 1.960938 372.769531 2.039062 372.632812 2.09375 C 372.5 2.148438 372.363281 2.175781 372.21875 2.175781 L 361.332031 2.175781 C 361.1875 2.175781 361.046875 2.148438 360.914062 2.09375 C 360.78125 2.039062 360.664062 1.960938 360.5625 1.859375 C 360.457031 1.757812 360.378906 1.640625 360.324219 1.503906 C 360.269531 1.371094 360.242188 1.234375 360.242188 1.089844 C 360.242188 0.945312 360.269531 0.804688 360.324219 0.671875 C 360.378906 0.539062 360.457031 0.421875 360.5625 0.320312 C 360.664062 0.214844 360.78125 0.136719 360.914062 0.0820312 C 361.046875 0.0273438 361.1875 0 361.332031 0 Z M 376.574219 0 L 387.460938 0 C 387.605469 0 387.742188 0.0273438 387.875 0.0820312 C 388.007812 0.136719 388.128906 0.214844 388.230469 0.320312 C 388.332031 0.421875 388.410156 0.539062 388.464844 0.671875 C 388.519531 0.804688 388.546875 0.945312 388.546875 1.089844 C 388.546875 1.234375 388.519531 1.371094 388.464844 1.503906 C 388.410156 1.640625 388.332031 1.757812 388.230469 1.859375 C 388.128906 1.960938 388.007812 2.039062 387.875 2.09375 C 387.742188 2.148438 387.605469 2.175781 387.460938 2.175781 L 376.574219 2.175781 C 376.429688 2.175781 376.289062 2.148438 376.15625 2.09375 C 376.023438 2.039062 375.90625 1.960938 375.800781 1.859375 C 375.699219 1.757812 375.621094 1.640625 375.566406 1.503906 C 375.511719 1.371094 375.484375 1.234375 375.484375 1.089844 C 375.484375 0.945312 375.511719 0.804688 375.566406 0.671875 C 375.621094 0.539062 375.699219 0.421875 375.800781 0.320312 C 375.90625 0.214844 376.023438 0.136719 376.15625 0.0820312 C 376.289062 0.0273438 376.429688 0 376.574219 0 Z M 391.816406 0 L 402.703125 0 C 402.847656 0 402.984375 0.0273438 403.117188 0.0820312 C 403.25 0.136719 403.371094 0.214844 403.472656 0.320312 C 403.574219 0.421875 403.652344 0.539062 403.707031 0.671875 C 403.761719 0.804688 403.789062 0.945312 403.789062 1.089844 C 403.789062 1.234375 403.761719 1.371094 403.707031 1.503906 C 403.652344 1.640625 403.574219 1.757812 403.472656 1.859375 C 403.371094 1.960938 403.25 2.039062 403.117188 2.09375 C 402.984375 2.148438 402.847656 2.175781 402.703125 2.175781 L 391.816406 2.175781 C 391.671875 2.175781 391.53125 2.148438 391.398438 2.09375 C 391.265625 2.039062 391.148438 1.960938 391.042969 1.859375 C 390.941406 1.757812 390.863281 1.640625 390.808594 1.503906 C 390.753906 1.371094 390.726562 1.234375 390.726562 1.089844 C 390.726562 0.945312 390.753906 0.804688 390.808594 0.671875 C 390.863281 0.539062 390.941406 0.421875 391.042969 0.320312 C 391.148438 0.214844 391.265625 0.136719 391.398438 0.0820312 C 391.53125 0.0273438 391.671875 0 391.816406 0 Z M 407.054688 0 L 417.945312 0 C 418.085938 0 418.226562 0.0273438 418.359375 0.0820312 C 418.492188 0.136719 418.609375 0.214844 418.714844 0.320312 C 418.816406 0.421875 418.894531 0.539062 418.949219 0.671875 C 419.003906 0.804688 419.03125 0.945312 419.03125 1.089844 C 419.03125 1.234375 419.003906 1.371094 418.949219 1.503906 C 418.894531 1.640625 418.816406 1.757812 418.714844 1.859375 C 418.609375 1.960938 418.492188 2.039062 418.359375 2.09375 C 418.226562 2.148438 418.085938 2.175781 417.945312 2.175781 L 407.054688 2.175781 C 406.910156 2.175781 406.773438 2.148438 406.640625 2.09375 C 406.507812 2.039062 406.386719 1.960938 406.285156 1.859375 C 406.183594 1.757812 406.105469 1.640625 406.050781 1.503906 C 405.996094 1.371094 405.96875 1.234375 405.96875 1.089844 C 405.96875 0.945312 405.996094 0.804688 406.050781 0.671875 C 406.105469 0.539062 406.183594 0.421875 406.285156 0.320312 C 406.386719 0.214844 406.507812 0.136719 406.640625 0.0820312 C 406.773438 0.0273438 406.910156 0 407.054688 0 Z M 422.296875 0 L 433.183594 0 C 433.328125 0 433.46875 0.0273438 433.601562 0.0820312 C 433.734375 0.136719 433.851562 0.214844 433.957031 0.320312 C 434.058594 0.421875 434.136719 0.539062 434.191406 0.671875 C 434.246094 0.804688 434.273438 0.945312 434.273438 1.089844 C 434.273438 1.234375 434.246094 1.371094 434.191406 1.503906 C 434.136719 1.640625 434.058594 1.757812 433.957031 1.859375 C 433.851562 1.960938 433.734375 2.039062 433.601562 2.09375 C 433.46875 2.148438 433.328125 2.175781 433.183594 2.175781 L 422.296875 2.175781 C 422.152344 2.175781 422.015625 2.148438 421.882812 2.09375 C 421.75 2.039062 421.628906 1.960938 421.527344 1.859375 C 421.425781 1.757812 421.347656 1.640625 421.292969 1.503906 C 421.238281 1.371094 421.210938 1.234375 421.210938 1.089844 C 421.210938 0.945312 421.238281 0.804688 421.292969 0.671875 C 421.347656 0.539062 421.425781 0.421875 421.527344 0.320312 C 421.628906 0.214844 421.75 0.136719 421.882812 0.0820312 C 422.015625 0.0273438 422.152344 0 422.296875 0 Z M 437.539062 0 L 448.425781 0 C 448.570312 0 448.710938 0.0273438 448.84375 0.0820312 C 448.976562 0.136719 449.09375 0.214844 449.195312 0.320312 C 449.300781 0.421875 449.378906 0.539062 449.433594 0.671875 C 449.488281 0.804688 449.515625 0.945312 449.515625 1.089844 C 449.515625 1.234375 449.488281 1.371094 449.433594 1.503906 C 449.378906 1.640625 449.300781 1.757812 449.195312 1.859375 C 449.09375 1.960938 448.976562 2.039062 448.84375 2.09375 C 448.710938 2.148438 448.570312 2.175781 448.425781 2.175781 L 437.539062 2.175781 C 437.394531 2.175781 437.257812 2.148438 437.125 2.09375 C 436.992188 2.039062 436.871094 1.960938 436.769531 1.859375 C 436.667969 1.757812 436.589844 1.640625 436.535156 1.503906 C 436.480469 1.371094 436.453125 1.234375 436.453125 1.089844 C 436.453125 0.945312 436.480469 0.804688 436.535156 0.671875 C 436.589844 0.539062 436.667969 0.421875 436.769531 0.320312 C 436.871094 0.214844 436.992188 0.136719 437.125 0.0820312 C 437.257812 0.0273438 437.394531 0 437.539062 0 Z M 452.78125 0 L 463.667969 0 C 463.8125 0 463.953125 0.0273438 464.085938 0.0820312 C 464.21875 0.136719 464.335938 0.214844 464.4375 0.320312 C 464.542969 0.421875 464.621094 0.539062 464.675781 0.671875 C 464.730469 0.804688 464.757812 0.945312 464.757812 1.089844 C 464.757812 1.234375 464.730469 1.371094 464.675781 1.503906 C 464.621094 1.640625 464.542969 1.757812 464.4375 1.859375 C 464.335938 1.960938 464.21875 2.039062 464.085938 2.09375 C 463.953125 2.148438 463.8125 2.175781 463.667969 2.175781 L 452.78125 2.175781 C 452.636719 2.175781 452.5 2.148438 452.367188 2.09375 C 452.230469 2.039062 452.113281 1.960938 452.011719 1.859375 C 451.910156 1.757812 451.832031 1.640625 451.777344 1.503906 C 451.722656 1.371094 451.695312 1.234375 451.695312 1.089844 C 451.695312 0.945312 451.722656 0.804688 451.777344 0.671875 C 451.832031 0.539062 451.910156 0.421875 452.011719 0.320312 C 452.113281 0.214844 452.230469 0.136719 452.367188 0.0820312 C 452.5 0.0273438 452.636719 0 452.78125 0 Z M 468.023438 0 L 478.910156 0 C 479.054688 0 479.195312 0.0273438 479.328125 0.0820312 C 479.460938 0.136719 479.578125 0.214844 479.679688 0.320312 C 479.78125 0.421875 479.863281 0.539062 479.917969 0.671875 C 479.972656 0.804688 480 0.945312 480 1.089844 C 480 1.234375 479.972656 1.371094 479.917969 1.503906 C 479.863281 1.640625 479.78125 1.757812 479.679688 1.859375 C 479.578125 1.960938 479.460938 2.039062 479.328125 2.09375 C 479.195312 2.148438 479.054688 2.175781 478.910156 2.175781 L 468.023438 2.175781 C 467.878906 2.175781 467.742188 2.148438 467.609375 2.09375 C 467.472656 2.039062 467.355469 1.960938 467.253906 1.859375 C 467.152344 1.757812 467.074219 1.640625 467.019531 1.503906 C 466.964844 1.371094 466.933594 1.234375 466.933594 1.089844 C 466.933594 0.945312 466.964844 0.804688 467.019531 0.671875 C 467.074219 0.539062 467.152344 0.421875 467.253906 0.320312 C 467.355469 0.214844 467.472656 0.136719 467.609375 0.0820312 C 467.742188 0.0273438 467.878906 0 468.023438 0 Z M 483.265625 0 L 494.152344 0 C 494.296875 0 494.4375 0.0273438 494.570312 0.0820312 C 494.703125 0.136719 494.820312 0.214844 494.921875 0.320312 C 495.023438 0.421875 495.105469 0.539062 495.160156 0.671875 C 495.214844 0.804688 495.242188 0.945312 495.242188 1.089844 C 495.242188 1.234375 495.214844 1.371094 495.160156 1.503906 C 495.105469 1.640625 495.023438 1.757812 494.921875 1.859375 C 494.820312 1.960938 494.703125 2.039062 494.570312 2.09375 C 494.4375 2.148438 494.296875 2.175781 494.152344 2.175781 L 483.265625 2.175781 C 483.121094 2.175781 482.984375 2.148438 482.847656 2.09375 C 482.714844 2.039062 482.597656 1.960938 482.496094 1.859375 C 482.394531 1.757812 482.316406 1.640625 482.261719 1.503906 C 482.203125 1.371094 482.175781 1.234375 482.175781 1.089844 C 482.175781 0.945312 482.203125 0.804688 482.261719 0.671875 C 482.316406 0.539062 482.394531 0.421875 482.496094 0.320312 C 482.597656 0.214844 482.714844 0.136719 482.847656 0.0820312 C 482.984375 0.0273438 483.121094 0 483.265625 0 Z M 498.507812 0 L 509.394531 0 C 509.539062 0 509.679688 0.0273438 509.8125 0.0820312 C 509.945312 0.136719 510.0625 0.214844 510.164062 0.320312 C 510.265625 0.421875 510.34375 0.539062 510.402344 0.671875 C 510.457031 0.804688 510.484375 0.945312 510.484375 1.089844 C 510.484375 1.234375 510.457031 1.371094 510.402344 1.503906 C 510.34375 1.640625 510.265625 1.757812 510.164062 1.859375 C 510.0625 1.960938 509.945312 2.039062 509.8125 2.09375 C 509.679688 2.148438 509.539062 2.175781 509.394531 2.175781 L 498.507812 2.175781 C 498.363281 2.175781 498.226562 2.148438 498.089844 2.09375 C 497.957031 2.039062 497.839844 1.960938 497.738281 1.859375 C 497.636719 1.757812 497.558594 1.640625 497.503906 1.503906 C 497.445312 1.371094 497.417969 1.234375 497.417969 1.089844 C 497.417969 0.945312 497.445312 0.804688 497.503906 0.671875 C 497.558594 0.539062 497.636719 0.421875 497.738281 0.320312 C 497.839844 0.214844 497.957031 0.136719 498.089844 0.0820312 C 498.226562 0.0273438 498.363281 0 498.507812 0 Z M 513.75 0 L 524.636719 0 C 524.78125 0 524.921875 0.0273438 525.054688 0.0820312 C 525.1875 0.136719 525.304688 0.214844 525.40625 0.320312 C 525.507812 0.421875 525.585938 0.539062 525.644531 0.671875 C 525.699219 0.804688 525.726562 0.945312 525.726562 1.089844 C 525.726562 1.234375 525.699219 1.371094 525.644531 1.503906 C 525.585938 1.640625 525.507812 1.757812 525.40625 1.859375 C 525.304688 1.960938 525.1875 2.039062 525.054688 2.09375 C 524.921875 2.148438 524.78125 2.175781 524.636719 2.175781 L 513.75 2.175781 C 513.605469 2.175781 513.464844 2.148438 513.332031 2.09375 C 513.199219 2.039062 513.082031 1.960938 512.980469 1.859375 C 512.878906 1.757812 512.800781 1.640625 512.742188 1.503906 C 512.6875 1.371094 512.660156 1.234375 512.660156 1.089844 C 512.660156 0.945312 512.6875 0.804688 512.742188 0.671875 C 512.800781 0.539062 512.878906 0.421875 512.980469 0.320312 C 513.082031 0.214844 513.199219 0.136719 513.332031 0.0820312 C 513.464844 0.0273438 513.605469 0 513.75 0 Z M 528.992188 0 L 539.878906 0 C 540.023438 0 540.164062 0.0273438 540.296875 0.0820312 C 540.429688 0.136719 540.546875 0.214844 540.648438 0.320312 C 540.75 0.421875 540.828125 0.539062 540.882812 0.671875 C 540.941406 0.804688 540.96875 0.945312 540.96875 1.089844 C 540.96875 1.234375 540.941406 1.371094 540.882812 1.503906 C 540.828125 1.640625 540.75 1.757812 540.648438 1.859375 C 540.546875 1.960938 540.429688 2.039062 540.296875 2.09375 C 540.164062 2.148438 540.023438 2.175781 539.878906 2.175781 L 528.992188 2.175781 C 528.847656 2.175781 528.707031 2.148438 528.574219 2.09375 C 528.441406 2.039062 528.324219 1.960938 528.222656 1.859375 C 528.121094 1.757812 528.042969 1.640625 527.984375 1.503906 C 527.929688 1.371094 527.902344 1.234375 527.902344 1.089844 C 527.902344 0.945312 527.929688 0.804688 527.984375 0.671875 C 528.042969 0.539062 528.121094 0.421875 528.222656 0.320312 C 528.324219 0.214844 528.441406 0.136719 528.574219 0.0820312 C 528.707031 0.0273438 528.847656 0 528.992188 0 Z M 544.234375 0 L 555.121094 0 C 555.265625 0 555.402344 0.0273438 555.539062 0.0820312 C 555.671875 0.136719 555.789062 0.214844 555.890625 0.320312 C 555.992188 0.421875 556.070312 0.539062 556.125 0.671875 C 556.183594 0.804688 556.210938 0.945312 556.210938 1.089844 C 556.210938 1.234375 556.183594 1.371094 556.125 1.503906 C 556.070312 1.640625 555.992188 1.757812 555.890625 1.859375 C 555.789062 1.960938 555.671875 2.039062 555.539062 2.09375 C 555.402344 2.148438 555.265625 2.175781 555.121094 2.175781 L 544.234375 2.175781 C 544.089844 2.175781 543.949219 2.148438 543.816406 2.09375 C 543.683594 2.039062 543.566406 1.960938 543.464844 1.859375 C 543.363281 1.757812 543.28125 1.640625 543.226562 1.503906 C 543.171875 1.371094 543.144531 1.234375 543.144531 1.089844 C 543.144531 0.945312 543.171875 0.804688 543.226562 0.671875 C 543.28125 0.539062 543.363281 0.421875 543.464844 0.320312 C 543.566406 0.214844 543.683594 0.136719 543.816406 0.0820312 C 543.949219 0.0273438 544.089844 0 544.234375 0 Z M 559.476562 0 L 570.363281 0 C 570.507812 0 570.644531 0.0273438 570.78125 0.0820312 C 570.914062 0.136719 571.03125 0.214844 571.132812 0.320312 C 571.234375 0.421875 571.3125 0.539062 571.367188 0.671875 C 571.425781 0.804688 571.453125 0.945312 571.453125 1.089844 C 571.453125 1.234375 571.425781 1.371094 571.367188 1.503906 C 571.3125 1.640625 571.234375 1.757812 571.132812 1.859375 C 571.03125 1.960938 570.914062 2.039062 570.78125 2.09375 C 570.644531 2.148438 570.507812 2.175781 570.363281 2.175781 L 559.476562 2.175781 C 559.332031 2.175781 559.191406 2.148438 559.058594 2.09375 C 558.925781 2.039062 558.808594 1.960938 558.707031 1.859375 C 558.605469 1.757812 558.523438 1.640625 558.46875 1.503906 C 558.414062 1.371094 558.386719 1.234375 558.386719 1.089844 C 558.386719 0.945312 558.414062 0.804688 558.46875 0.671875 C 558.523438 0.539062 558.605469 0.421875 558.707031 0.320312 C 558.808594 0.214844 558.925781 0.136719 559.058594 0.0820312 C 559.191406 0.0273438 559.332031 0 559.476562 0 Z M 574.71875 0 L 583.425781 0 C 583.570312 0 583.710938 0.0273438 583.84375 0.0820312 C 583.976562 0.136719 584.09375 0.214844 584.195312 0.320312 C 584.300781 0.421875 584.378906 0.539062 584.433594 0.671875 C 584.488281 0.804688 584.515625 0.945312 584.515625 1.089844 C 584.515625 1.234375 584.488281 1.371094 584.433594 1.503906 C 584.378906 1.640625 584.300781 1.757812 584.195312 1.859375 C 584.09375 1.960938 583.976562 2.039062 583.84375 2.09375 C 583.710938 2.148438 583.570312 2.175781 583.425781 2.175781 L 574.71875 2.175781 C 574.574219 2.175781 574.433594 2.148438 574.300781 2.09375 C 574.167969 2.039062 574.050781 1.960938 573.949219 1.859375 C 573.84375 1.757812 573.765625 1.640625 573.710938 1.503906 C 573.65625 1.371094 573.628906 1.234375 573.628906 1.089844 C 573.628906 0.945312 573.65625 0.804688 573.710938 0.671875 C 573.765625 0.539062 573.84375 0.421875 573.949219 0.320312 C 574.050781 0.214844 574.167969 0.136719 574.300781 0.0820312 C 574.433594 0.0273438 574.574219 0 574.71875 0 Z M 574.71875 0 " fill-opacity="1" fill-rule="nonzero"/></g></svg>